<?xml version="1.0" standalone="no"?>
<!DOCTYPE svg PUBLIC "-//W3C//DTD SVG 20010904//EN"
 "http://www.w3.org/TR/2001/REC-SVG-20010904/DTD/svg10.dtd">
<svg version="1.0" xmlns="http://www.w3.org/2000/svg"
 width="625.000000pt" height="604.000000pt" viewBox="0 0 625.000000 604.000000"
 preserveAspectRatio="xMidYMid meet">

<g transform="translate(0.000000,604.000000) scale(0.100000,-0.100000)"
fill="#000000" stroke="none">
<path d="M1422 5464 c-22 -15 -22 -19 -22 -224 l0 -209 -567 -3 c-564 -3 -568
-3 -609 -25 -51 -27 -90 -72 -104 -121 -8 -26 -10 -661 -8 -2119 l3 -2081 30
-43 c17 -23 50 -53 74 -66 l44 -23 2836 0 c1669 0 2852 4 2875 10 58 13 115
58 147 115 l28 50 0 2066 1 2065 -21 45 c-27 56 -54 86 -104 112 -39 22 -48
22 -607 25 l-568 3 0 200 c0 119 -4 208 -10 220 -10 18 -23 19 -229 19 -191 0
-220 -2 -232 -17 -11 -12 -14 -62 -14 -218 l0 -202 -89 -7 c-49 -3 -273 -6
-498 -6 l-408 0 0 203 c0 167 -3 206 -16 225 -15 22 -19 22 -229 22 -210 0
-214 0 -229 -22 -13 -19 -16 -58 -16 -225 l0 -203 -496 2 -496 3 2 192 c1 190
-4 225 -34 245 -6 4 -101 8 -211 8 -166 0 -204 -3 -223 -16z m2941 -1147 c2
-194 3 -210 21 -223 16 -11 64 -14 225 -14 176 0 207 2 223 17 16 15 18 35 18
225 l0 208 405 0 405 0 0 -1735 0 -1735 -643 0 c-354 0 -1495 -3 -2535 -7
l-1892 -6 0 1736 0 1737 405 0 405 0 0 -209 c0 -206 0 -210 22 -225 19 -13 57
-16 219 -16 266 0 244 -22 244 244 l0 206 498 0 497 0 0 -202 c0 -173 2 -204
17 -220 15 -16 35 -18 226 -18 182 0 213 2 229 17 16 15 18 35 18 218 0 111 3
205 7 208 3 4 226 6 495 5 l489 -3 2 -208z"/>
<path d="M4605 3460 c-11 -4 -30 -18 -41 -31 -18 -20 -394 -560 -631 -906 -35
-51 -67 -94 -72 -97 -4 -3 -88 109 -185 249 -98 140 -189 264 -203 275 -24 19
-40 20 -238 20 -193 0 -213 -2 -228 -18 -28 -31 -20 -54 51 -158 343 -499 718
-1032 736 -1046 31 -26 99 -23 129 5 29 26 1138 1622 1144 1646 2 9 -5 29 -17
44 l-21 27 -202 -1 c-111 0 -211 -4 -222 -9z"/>
<path d="M1625 3123 c-404 -3 -410 -3 -427 -24 -16 -18 -18 -45 -18 -203 0
-181 0 -183 25 -206 l25 -23 637 7 c434 4 641 10 650 18 10 8 13 57 13 209 0
193 -1 198 -22 213 -19 14 -57 16 -248 14 -124 -2 -409 -4 -635 -5z"/>
<path d="M1196 2148 c-13 -18 -16 -56 -16 -205 0 -170 1 -184 20 -203 20 -20
33 -20 653 -20 556 0 635 2 655 16 21 15 22 20 22 213 0 140 -3 200 -12 209
-9 9 -169 12 -659 12 l-648 0 -15 -22z"/>
</g>
</svg>
