<svg width="150" height="119" viewBox="0 0 150 119" fill="none" xmlns="http://www.w3.org/2000/svg">
<path d="M144.643 11.3539H117.857V1.94421C117.857 1.20488 117.254 0.599976 116.518 0.599976H107.143C106.406 0.599976 105.804 1.20488 105.804 1.94421V11.3539H81.0268V1.94421C81.0268 1.20488 80.4241 0.599976 79.6875 0.599976H70.3125C69.5759 0.599976 68.9732 1.20488 68.9732 1.94421V11.3539H44.1964V1.94421C44.1964 1.20488 43.5938 0.599976 42.8571 0.599976H33.4821C32.7455 0.599976 32.1429 1.20488 32.1429 1.94421V11.3539H5.35714C2.39397 11.3539 0 13.7567 0 16.7308V113.516C0 116.49 2.39397 118.893 5.35714 118.893H144.643C147.606 118.893 150 116.49 150 113.516V16.7308C150 13.7567 147.606 11.3539 144.643 11.3539ZM137.946 106.795H12.0536V23.452H32.1429V32.8616C32.1429 33.6009 32.7455 34.2058 33.4821 34.2058H42.8571C43.5938 34.2058 44.1964 33.6009 44.1964 32.8616V23.452H68.9732V32.8616C68.9732 33.6009 69.5759 34.2058 70.3125 34.2058H79.6875C80.4241 34.2058 81.0268 33.6009 81.0268 32.8616V23.452H105.804V32.8616C105.804 33.6009 106.406 34.2058 107.143 34.2058H116.518C117.254 34.2058 117.857 33.6009 117.857 32.8616V23.452H137.946V106.795ZM58.9286 57.0578H28.125C27.3884 57.0578 26.7857 57.6627 26.7857 58.4021V66.4675C26.7857 67.2068 27.3884 67.8117 28.125 67.8117H58.9286C59.6652 67.8117 60.2679 67.2068 60.2679 66.4675V58.4021C60.2679 57.6627 59.6652 57.0578 58.9286 57.0578ZM58.9286 79.9098H28.125C27.3884 79.9098 26.7857 80.5147 26.7857 81.2541V89.3195C26.7857 90.0588 27.3884 90.6637 28.125 90.6637H58.9286C59.6652 90.6637 60.2679 90.0588 60.2679 89.3195V81.2541C60.2679 80.5147 59.6652 79.9098 58.9286 79.9098ZM110.525 50.1014L93.1808 74.2472L84.3415 61.9643C83.8393 61.2586 83.0357 60.8553 82.1819 60.8553H72.9911C71.9029 60.8553 71.2667 62.0987 71.9029 62.9893L91.0045 89.5715C91.2511 89.915 91.5755 90.1948 91.951 90.3877C92.3264 90.5807 92.7422 90.6813 93.1641 90.6813C93.5859 90.6813 94.0017 90.5807 94.3772 90.3877C94.7526 90.1948 95.0771 89.915 95.3237 89.5715L122.946 51.1432C123.583 50.2526 122.946 49.0092 121.858 49.0092H112.667C111.83 48.9924 111.027 49.4125 110.525 50.1014Z" fill="#8E97C8"/>
</svg>
