<svg width="156" height="123" viewBox="0 0 156 123" fill="none" xmlns="http://www.w3.org/2000/svg">
<path d="M150.399 11.1818H122.547V1.39773C122.547 0.628977 121.92 0 121.155 0H111.406C110.641 0 110.014 0.628977 110.014 1.39773V11.1818H84.2512V1.39773C84.2512 0.628977 83.6245 0 82.8586 0H73.1105C72.3446 0 71.7179 0.628977 71.7179 1.39773V11.1818H45.9552V1.39773C45.9552 0.628977 45.3285 0 44.5626 0H34.8145C34.0486 0 33.4219 0.628977 33.4219 1.39773V11.1818H5.57032C2.48924 11.1818 0 13.6803 0 16.7727V117.409C0 120.502 2.48924 123 5.57032 123H150.399C153.48 123 155.969 120.502 155.969 117.409V16.7727C155.969 13.6803 153.48 11.1818 150.399 11.1818ZM143.436 110.42H12.5332V23.7614H33.4219V33.5455C33.4219 34.3142 34.0486 34.9432 34.8145 34.9432H44.5626C45.3285 34.9432 45.9552 34.3142 45.9552 33.5455V23.7614H71.7179V33.5455C71.7179 34.3142 72.3446 34.9432 73.1105 34.9432H82.8586C83.6245 34.9432 84.2512 34.3142 84.2512 33.5455V23.7614H110.014V33.5455C110.014 34.3142 110.641 34.9432 111.406 34.9432H121.155C121.92 34.9432 122.547 34.3142 122.547 33.5455V23.7614H143.436V110.42ZM61.2736 58.7045H29.2442C28.4783 58.7045 27.8516 59.3335 27.8516 60.1023V68.4886C27.8516 69.2574 28.4783 69.8864 29.2442 69.8864H61.2736C62.0395 69.8864 62.6662 69.2574 62.6662 68.4886V60.1023C62.6662 59.3335 62.0395 58.7045 61.2736 58.7045ZM61.2736 82.4659H29.2442C28.4783 82.4659 27.8516 83.0949 27.8516 83.8636V92.25C27.8516 93.0187 28.4783 93.6477 29.2442 93.6477H61.2736C62.0395 93.6477 62.6662 93.0187 62.6662 92.25V83.8636C62.6662 83.0949 62.0395 82.4659 61.2736 82.4659ZM114.923 51.4713L96.8888 76.578L87.6978 63.8063C87.1756 63.0724 86.34 62.6531 85.4523 62.6531H75.8957C74.7642 62.6531 74.1027 63.946 74.7642 64.872L94.6259 92.5121C94.8823 92.8692 95.2196 93.1601 95.6101 93.3608C96.0005 93.5614 96.4328 93.666 96.8714 93.666C97.3101 93.666 97.7424 93.5614 98.1328 93.3608C98.5232 93.1601 98.8606 92.8692 99.117 92.5121L127.839 52.5545C128.5 51.6285 127.839 50.3357 126.707 50.3357H117.151C116.281 50.3182 115.445 50.755 114.923 51.4713Z" fill="white"/>
</svg>
