<svg width="150" height="123" viewBox="0 0 150 123" fill="none" xmlns="http://www.w3.org/2000/svg">
<path d="M147.901 57.6268L120.378 6.84636C119.236 4.74037 117.689 3.01358 115.875 1.81927C114.061 0.62495 112.035 4.00342e-05 109.977 0H40.0232C37.9654 8.10687e-06 35.9394 0.624906 34.125 1.81923C32.3107 3.01355 30.7641 4.74035 29.6227 6.84636L2.09948 57.6268C0.73049 60.1523 -3.01386e-05 63.1197 9.32578e-10 66.1551L9.3258e-10 107.625C9.3258e-10 116.116 5.59635 123 12.5 123H137.5C144.404 123 150 116.116 150 107.625V66.1551C150 63.1197 149.27 60.1523 147.901 57.6268V57.6268ZM42.2531 20.5H107.747L129.969 61.5H97.9167L89.5833 82H60.4167L52.0833 61.5H20.0307L42.2531 20.5Z" fill="white"/>
</svg>
