<svg width="126" height="89" viewBox="0 0 126 89" fill="none" xmlns="http://www.w3.org/2000/svg">
<path d="M119.25 0.821777H6.75C3.29883 0.821777 0.5 3.62394 0.5 7.07922V82.1685C0.5 85.6238 3.29883 88.426 6.75 88.426H119.25C122.701 88.426 125.5 85.6238 125.5 82.1685V7.07922C125.5 3.62394 122.701 0.821777 119.25 0.821777ZM34.875 58.6797V61.8318C34.875 62.6961 34.1758 63.3962 33.3125 63.3962H30.1875C29.3242 63.3962 28.625 62.6961 28.625 61.8318V58.6464C26.4199 58.533 24.2754 57.7625 22.498 56.427C21.7363 55.854 21.6973 54.712 22.3867 54.0531L24.6816 51.861C25.2227 51.3448 26.0273 51.3213 26.6602 51.7182C27.416 52.1915 28.2734 52.4457 29.1641 52.4457H34.6543C35.9238 52.4457 36.959 51.288 36.959 49.8664C36.959 48.7029 36.2539 47.6783 35.2461 47.3771L26.457 44.7373C22.8262 43.6461 20.2891 40.1576 20.2891 36.2526C20.2891 31.4578 24.0098 27.5626 28.623 27.4394V24.2872C28.623 23.4229 29.3223 22.7228 30.1855 22.7228H33.3105C34.1738 22.7228 34.873 23.4229 34.873 24.2872V27.4726C37.0781 27.586 39.2227 28.3545 41 29.6921C41.7617 30.265 41.8008 31.407 41.1113 32.066L38.8164 34.258C38.2754 34.7743 37.4707 34.7977 36.8379 34.4008C36.082 33.9256 35.2246 33.6733 34.334 33.6733H28.8437C27.5742 33.6733 26.5391 34.831 26.5391 36.2526C26.5391 37.4161 27.2441 38.4407 28.252 38.7419L37.041 41.3817C40.6719 42.4729 43.209 45.9614 43.209 49.8664C43.209 54.6632 39.4883 58.5565 34.875 58.6797V58.6797ZM81.75 55.5744C81.75 56.4387 81.0508 57.1388 80.1875 57.1388H58.3125C57.4492 57.1388 56.75 56.4387 56.75 55.5744V52.4457C56.75 51.5814 57.4492 50.8813 58.3125 50.8813H80.1875C81.0508 50.8813 81.75 51.5814 81.75 52.4457V55.5744ZM113 55.5744C113 56.4387 112.301 57.1388 111.438 57.1388H95.8125C94.9492 57.1388 94.25 56.4387 94.25 55.5744V52.4457C94.25 51.5814 94.9492 50.8813 95.8125 50.8813H111.438C112.301 50.8813 113 51.5814 113 52.4457V55.5744ZM113 36.8021C113 37.6664 112.301 38.3664 111.438 38.3664H58.3125C57.4492 38.3664 56.75 37.6664 56.75 36.8021V33.6733C56.75 32.809 57.4492 32.109 58.3125 32.109H111.438C112.301 32.109 113 32.809 113 33.6733V36.8021Z" fill="#8E97C8"/>
</svg>
