<svg width="150" height="123" viewBox="0 0 150 123" fill="none" xmlns="http://www.w3.org/2000/svg">
<path d="M142.5 0H7.5C3.35859 0 0 3.93435 0 8.78571V114.214C0 119.066 3.35859 123 7.5 123H142.5C146.641 123 150 119.066 150 114.214V8.78571C150 3.93435 146.641 0 142.5 0ZM41.25 81.2349V85.6607C41.25 86.8742 40.4109 87.8571 39.375 87.8571H35.625C34.5891 87.8571 33.75 86.8742 33.75 85.6607V81.1882C31.1039 81.029 28.5305 79.9472 26.3977 78.072C25.4836 77.2676 25.4367 75.6642 26.2641 74.739L29.018 71.6612C29.6672 70.9364 30.6328 70.9035 31.3922 71.4608C32.2992 72.1252 33.3281 72.4821 34.3969 72.4821H40.9852C42.5086 72.4821 43.7508 70.8568 43.7508 68.8608C43.7508 67.2272 42.9047 65.7885 41.6953 65.3657L31.1484 61.6592C26.7914 60.1272 23.7469 55.2292 23.7469 49.7464C23.7469 43.0143 28.2117 37.5452 33.7477 37.3722V32.9464C33.7477 31.7329 34.5867 30.75 35.6227 30.75H39.3727C40.4086 30.75 41.2477 31.7329 41.2477 32.9464V37.4189C43.8938 37.5781 46.4672 38.6571 48.6 40.5351C49.5141 41.3395 49.5609 42.9429 48.7336 43.8682L45.9797 46.9459C45.3305 47.6707 44.3648 47.7037 43.6055 47.1463C42.6984 46.4792 41.6695 46.125 40.6008 46.125H34.0125C32.4891 46.125 31.2469 47.7504 31.2469 49.7464C31.2469 51.38 32.093 52.8186 33.3023 53.2414L43.8492 56.9479C48.2062 58.4799 51.2508 63.3779 51.2508 68.8608C51.2508 75.5956 46.7859 81.0619 41.25 81.2349V81.2349ZM97.5 76.875C97.5 78.0885 96.6609 79.0714 95.625 79.0714H69.375C68.3391 79.0714 67.5 78.0885 67.5 76.875V72.4821C67.5 71.2686 68.3391 70.2857 69.375 70.2857H95.625C96.6609 70.2857 97.5 71.2686 97.5 72.4821V76.875ZM135 76.875C135 78.0885 134.161 79.0714 133.125 79.0714H114.375C113.339 79.0714 112.5 78.0885 112.5 76.875V72.4821C112.5 71.2686 113.339 70.2857 114.375 70.2857H133.125C134.161 70.2857 135 71.2686 135 72.4821V76.875ZM135 50.5179C135 51.7314 134.161 52.7143 133.125 52.7143H69.375C68.3391 52.7143 67.5 51.7314 67.5 50.5179V46.125C67.5 44.9115 68.3391 43.9286 69.375 43.9286H133.125C134.161 43.9286 135 44.9115 135 46.125V50.5179Z" fill="white"/>
</svg>
