<svg width="139" height="123" viewBox="0 0 139 123" fill="none" xmlns="http://www.w3.org/2000/svg">
<path d="M0 111.469C0 117.835 6.67076 123 14.8929 123H124.107C132.329 123 139 117.835 139 111.469V46.125H0V111.469ZM99.2857 64.3828C99.2857 62.7973 100.961 61.5 103.009 61.5H115.42C117.467 61.5 119.143 62.7973 119.143 64.3828V73.9922C119.143 75.5777 117.467 76.875 115.42 76.875H103.009C100.961 76.875 99.2857 75.5777 99.2857 73.9922V64.3828ZM99.2857 95.1328C99.2857 93.5473 100.961 92.25 103.009 92.25H115.42C117.467 92.25 119.143 93.5473 119.143 95.1328V104.742C119.143 106.328 117.467 107.625 115.42 107.625H103.009C100.961 107.625 99.2857 106.328 99.2857 104.742V95.1328ZM59.5714 64.3828C59.5714 62.7973 61.2469 61.5 63.2946 61.5H75.7054C77.7531 61.5 79.4286 62.7973 79.4286 64.3828V73.9922C79.4286 75.5777 77.7531 76.875 75.7054 76.875H63.2946C61.2469 76.875 59.5714 75.5777 59.5714 73.9922V64.3828ZM59.5714 95.1328C59.5714 93.5473 61.2469 92.25 63.2946 92.25H75.7054C77.7531 92.25 79.4286 93.5473 79.4286 95.1328V104.742C79.4286 106.328 77.7531 107.625 75.7054 107.625H63.2946C61.2469 107.625 59.5714 106.328 59.5714 104.742V95.1328ZM19.8571 64.3828C19.8571 62.7973 21.5326 61.5 23.5804 61.5H35.9911C38.0388 61.5 39.7143 62.7973 39.7143 64.3828V73.9922C39.7143 75.5777 38.0388 76.875 35.9911 76.875H23.5804C21.5326 76.875 19.8571 75.5777 19.8571 73.9922V64.3828ZM19.8571 95.1328C19.8571 93.5473 21.5326 92.25 23.5804 92.25H35.9911C38.0388 92.25 39.7143 93.5473 39.7143 95.1328V104.742C39.7143 106.328 38.0388 107.625 35.9911 107.625H23.5804C21.5326 107.625 19.8571 106.328 19.8571 104.742V95.1328ZM124.107 15.375H109.214V3.84375C109.214 1.72969 106.98 0 104.25 0H94.3214C91.5911 0 89.3571 1.72969 89.3571 3.84375V15.375H49.6429V3.84375C49.6429 1.72969 47.4089 0 44.6786 0H34.75C32.0196 0 29.7857 1.72969 29.7857 3.84375V15.375H14.8929C6.67076 15.375 0 20.54 0 26.9062V38.4375H139V26.9062C139 20.54 132.329 15.375 124.107 15.375Z" fill="white"/>
</svg>
