<svg width="122" height="145" xmlns="http://www.w3.org/2000/svg">

 <g>
  <title>Layer 1</title>
  <g stroke="null" id="svg_11">
   <path stroke="null" id="svg_10" fill="#8E97C8" d="m91.70348,78.21209l-31.20347,0l0,31.34092l31.20347,0l0,-31.34092zm-6.24056,-68.95002l0,12.53637l-49.92576,0l0,-12.53637l-12.48139,0l0,12.53637l-6.24076,0c-6.92715,0 -12.41898,5.64137 -12.41898,12.53637l-0.06241,87.75457c0,6.895 5.55423,12.53637 12.48139,12.53637l87.37027,0c6.86448,0 12.48112,-5.64136 12.48112,-12.53637l0,-87.75457c0,-6.895 -5.61664,-12.53637 -12.48112,-12.53637l-6.24123,0l0,-12.53637l-12.48112,0zm18.72235,112.82731l-87.37027,0l0,-68.95002l87.37027,0l0,68.95002z"/>
  </g>
  <rect id="svg_9" height="1" width="0" y="179" x="-267.5" stroke="#000" fill="#fff"/>
 </g>
</svg>