<svg width="150" height="123" viewBox="0 0 150 123" fill="none" xmlns="http://www.w3.org/2000/svg">
<path d="M137.5 0H12.5C5.59896 0 0 5.9029 0 13.1786V109.821C0 117.097 5.59896 123 12.5 123H137.5C144.401 123 150 117.097 150 109.821V13.1786C150 5.9029 144.401 0 137.5 0ZM45.8333 26.3571C55.026 26.3571 62.5 34.2368 62.5 43.9286C62.5 53.6203 55.026 61.5 45.8333 61.5C36.6406 61.5 29.1667 53.6203 29.1667 43.9286C29.1667 34.2368 36.6406 26.3571 45.8333 26.3571ZM75 91.3714C75 94.2817 72.3958 96.6429 69.1667 96.6429H22.5C19.2708 96.6429 16.6667 94.2817 16.6667 91.3714V86.1C16.6667 77.3692 24.5052 70.2857 34.1667 70.2857H35.4687C38.6719 71.6859 42.1615 72.4821 45.8333 72.4821C49.5052 72.4821 53.0208 71.6859 56.1979 70.2857H57.5C67.1615 70.2857 75 77.3692 75 86.1V91.3714ZM133.333 76.875C133.333 78.083 132.396 79.0714 131.25 79.0714H93.75C92.6042 79.0714 91.6667 78.083 91.6667 76.875V72.4821C91.6667 71.2741 92.6042 70.2857 93.75 70.2857H131.25C132.396 70.2857 133.333 71.2741 133.333 72.4821V76.875ZM133.333 59.3036C133.333 60.5116 132.396 61.5 131.25 61.5H93.75C92.6042 61.5 91.6667 60.5116 91.6667 59.3036V54.9107C91.6667 53.7027 92.6042 52.7143 93.75 52.7143H131.25C132.396 52.7143 133.333 53.7027 133.333 54.9107V59.3036ZM133.333 41.7321C133.333 42.9402 132.396 43.9286 131.25 43.9286H93.75C92.6042 43.9286 91.6667 42.9402 91.6667 41.7321V37.3393C91.6667 36.1312 92.6042 35.1429 93.75 35.1429H131.25C132.396 35.1429 133.333 36.1312 133.333 37.3393V41.7321Z" fill="white"/>
</svg>
