<svg width="150" height="123" viewBox="0 0 150 123" fill="none" xmlns="http://www.w3.org/2000/svg">
<path d="M74.925 0C33.525 0 0 27.552 0 61.5C0 95.448 33.525 123 74.925 123C116.4 123 150 95.448 150 61.5C150 27.552 116.4 0 74.925 0ZM75 110.7C41.85 110.7 15 88.683 15 61.5C15 34.317 41.85 12.3 75 12.3C108.15 12.3 135 34.317 135 61.5C135 88.683 108.15 110.7 75 110.7ZM101.25 55.35C107.475 55.35 112.5 51.2295 112.5 46.125C112.5 41.0205 107.475 36.9 101.25 36.9C95.025 36.9 90 41.0205 90 46.125C90 51.2295 95.025 55.35 101.25 55.35ZM48.75 55.35C54.975 55.35 60 51.2295 60 46.125C60 41.0205 54.975 36.9 48.75 36.9C42.525 36.9 37.5 41.0205 37.5 46.125C37.5 51.2295 42.525 55.35 48.75 55.35ZM75 95.325C92.475 95.325 107.325 86.346 113.325 73.8H36.675C42.675 86.346 57.525 95.325 75 95.325Z" fill="white"/>
</svg>
