<svg width="150" height="145" viewBox="0 0 150 149" fill="none" xmlns="http://www.w3.org/2000/svg">
<g clip-path="url(#clip0)">
<path d="M129.557 105.825C126.71 100.24 122.579 95.1663 117.393 90.8875C112.223 86.5964 106.099 83.1751 99.3587 80.8125C99.2983 80.7875 99.238 80.775 99.1776 80.75C108.58 75.125 114.692 65.9625 114.692 55.625C114.692 38.5 97.9401 24.625 77.2648 24.625C56.5895 24.625 39.838 38.5 39.838 55.625C39.838 65.9625 45.95 75.125 55.352 80.7625C55.2916 80.7875 55.2313 80.8 55.1709 80.825C48.4099 83.1875 42.3431 86.575 37.1366 90.9C31.9558 95.1821 27.8252 100.255 24.9729 105.838C22.1707 111.303 20.6595 117.163 20.5209 123.1C20.5169 123.233 20.5451 123.366 20.604 123.49C20.6628 123.615 20.7511 123.728 20.8636 123.823C20.9762 123.919 21.1106 123.995 21.2591 124.047C21.4076 124.098 21.5671 124.125 21.7282 124.125H30.7831C31.4471 124.125 31.9753 123.688 31.9904 123.15C32.2922 113.5 36.9706 104.463 45.2407 97.6125C53.7976 90.525 65.1614 86.625 77.2648 86.625C89.3681 86.625 100.732 90.525 109.289 97.6125C117.559 104.463 122.237 113.5 122.539 123.15C122.554 123.7 123.082 124.125 123.746 124.125H132.801C132.962 124.125 133.122 124.098 133.27 124.047C133.419 123.995 133.553 123.919 133.666 123.823C133.778 123.728 133.867 123.615 133.926 123.49C133.984 123.366 134.013 123.233 134.009 123.1C133.858 117.125 132.364 111.312 129.557 105.825ZM77.2648 77.125C70.3378 77.125 63.8183 74.8875 58.9136 70.825C54.0088 66.7625 51.3075 61.3625 51.3075 55.625C51.3075 49.8875 54.0088 44.4875 58.9136 40.425C63.8183 36.3625 70.3378 34.125 77.2648 34.125C84.1918 34.125 90.7113 36.3625 95.616 40.425C100.521 44.4875 103.222 49.8875 103.222 55.625C103.222 61.3625 100.521 66.7625 95.616 70.825C90.7113 74.8875 84.1918 77.125 77.2648 77.125Z" fill="#8E97C8"/>
</g>
<defs>
<clipPath id="clip0">
<rect width="150" height="148.75" fill="white"/>
</clipPath>
</defs>
</svg>
