<svg width="151" height="124" viewBox="0 0 151 124" fill="none" xmlns="http://www.w3.org/2000/svg">
<g clip-path="url(#clip0)">
<path d="M145.782 23.3153C136.69 20.1884 127.592 18.9988 118.498 18.9988C89.6303 18.9969 60.7647 30.9797 31.8967 30.9797C24.6569 30.9797 17.4217 30.2264 10.1819 28.3429C9.3686 28.1315 8.55298 28.0316 7.7561 28.0316C3.72251 28.0316 0.19751 30.5915 0.19751 34.1451V95.1185C0.19751 97.5458 1.89204 99.8463 4.61313 100.78C13.7045 103.909 22.803 105.099 31.8967 105.099C60.7647 105.099 89.6327 93.1159 118.501 93.1159C125.74 93.1159 132.976 93.8693 140.215 95.7527C141.029 95.9641 141.844 96.0641 142.641 96.0641C146.675 96.0641 150.2 93.5041 150.2 89.9506V28.9791C150.198 26.5498 148.503 24.2513 145.782 23.3153V23.3153ZM11.4475 38.2598C16.1631 39.2284 21.085 39.7147 26.1475 39.976C24.7694 45.6244 18.7131 49.8814 11.4475 49.8814V38.2598ZM11.4475 93.0333V83.8505C19.503 83.8505 26.0209 89.0915 26.3795 95.6508C21.0991 95.303 16.1631 94.4381 11.4475 93.0333V93.0333ZM75.1975 80.4988C64.8405 80.4988 56.4475 72.2366 56.4475 62.0488C56.4475 51.859 64.8428 43.5988 75.1975 43.5988C85.5522 43.5988 93.9475 51.859 93.9475 62.0488C93.9475 72.2405 85.5499 80.4988 75.1975 80.4988ZM138.948 85.8378C134.841 84.9941 130.578 84.5213 126.216 84.2157C127.592 79.2034 132.662 75.3981 138.948 74.7447V85.8378ZM138.948 40.4604C131.708 39.7089 126.09 34.7524 125.867 28.6312C130.447 29.0483 134.794 29.8285 138.948 31.0643V40.4604Z" fill="white"/>
</g>
<defs>
<clipPath id="clip0">
<rect width="150" height="123" fill="white" transform="translate(0.19751 0.548828)"/>
</clipPath>
</defs>
</svg>
