<svg width="24" height="42" viewBox="0 0 24 42" fill="none" xmlns="http://www.w3.org/2000/svg">
<path d="M17.3055 19.1608L8.5164 16.5892C7.49915 16.2962 6.79114 15.344 6.79114 14.2861C6.79114 12.9596 7.86536 11.8854 9.19186 11.8854H14.5874C15.5802 11.8854 16.5568 12.1865 17.3706 12.7399C17.867 13.0735 18.5343 12.9921 18.9575 12.5771L21.7895 9.81018C22.3673 9.24866 22.2859 8.31279 21.643 7.81637C19.6492 6.25387 17.159 5.3831 14.6036 5.37496V1.46871C14.6036 0.752563 14.0177 0.166626 13.3016 0.166626H10.6974C9.98125 0.166626 9.39531 0.752563 9.39531 1.46871V5.37496H9.19186C4.00794 5.37496 -0.158727 9.82646 0.321417 15.108C0.663214 18.8597 3.5278 21.9114 7.14108 22.9694L15.4825 25.4108C16.4998 25.7119 17.2078 26.6559 17.2078 27.7138C17.2078 29.0403 16.1336 30.1145 14.8071 30.1145H9.41159C8.41875 30.1145 7.44219 29.8134 6.62838 29.2601C6.13196 28.9264 5.46465 29.0078 5.04147 29.4228L2.20944 32.1897C1.63164 32.7513 1.71302 33.6871 2.35592 34.1836C4.34974 35.7461 6.83997 36.6168 9.39531 36.625V40.5312C9.39531 41.2474 9.98125 41.8333 10.6974 41.8333H13.3016C14.0177 41.8333 14.6036 41.2474 14.6036 40.5312V36.6087C18.396 36.5354 21.9523 34.2812 23.2055 30.6923C24.9552 25.6793 22.0174 20.5361 17.3055 19.1608Z" fill="#8E97C8"/>
</svg>
