<svg width="24" height="42" viewBox="0 0 24 42" fill="none" xmlns="http://www.w3.org/2000/svg">
<path d="M12.9194 18.4333C7.56778 17.0567 5.84676 15.6333 5.84676 13.4167C5.84676 10.8733 8.2279 9.1 12.2122 9.1C16.4086 9.1 17.9646 11.0833 18.1061 14H23.3163C23.1513 9.98667 20.6758 6.3 15.7485 5.11V0H8.67583V5.04C4.10216 6.02 0.424361 8.96 0.424361 13.4633C0.424361 18.8533 4.92731 21.5367 11.5049 23.1C17.3988 24.5 18.5776 26.5533 18.5776 28.7233C18.5776 30.3333 17.4224 32.9 12.2122 32.9C7.3556 32.9 5.44597 30.7533 5.18664 28H0C0.282908 33.11 4.14931 35.98 8.67583 36.9367V42H15.7485V36.9833C20.3458 36.12 24 33.4833 24 28.7C24 22.0733 18.2711 19.81 12.9194 18.4333Z" fill="white"/>
</svg>
