<svg width="150" height="123" viewBox="0 0 150 123" fill="none" xmlns="http://www.w3.org/2000/svg">
<path d="M74.9994 27.6173L18.0906 73.9225C17.6688 74.2733 17.1297 74.4366 16.6662 74.7273V119.156C16.6662 121.28 18.5307 123 20.8328 123H59.6947L49.9994 105.509L77.1113 90.1335L61.4447 61.4928L99.9993 94.3521L72.8874 109.727L83.2832 123H129.166C131.468 123 133.333 121.28 133.333 119.156V74.7369C132.89 74.4583 132.364 74.2997 131.963 73.9682L74.9994 27.6173ZM148.616 56.7626L133.333 44.3112V11.5313C133.333 9.40758 131.468 7.68751 129.166 7.68751H112.499C110.197 7.68751 108.333 9.40758 108.333 11.5313V23.949L81.9655 2.47682C79.9785 0.828814 77.4889 0.0024076 74.9994 5.25293e-06C72.5098 -0.00239709 70.0254 0.819205 68.0462 2.46721L1.38235 56.7626C-0.32858 58.1824 -0.471809 60.6111 1.06725 62.1919L6.64015 67.9143C8.17661 69.4926 10.812 69.6247 12.5256 68.2049L72.2442 19.6103C73.8197 18.3299 76.1816 18.3299 77.7572 19.6103L137.476 68.2025C139.187 69.6199 141.822 69.4902 143.361 67.9119L148.934 62.1895C150.471 60.6111 150.33 58.18 148.616 56.7626V56.7626Z" fill="white"/>
</svg>
