<svg width="150" height="145" viewBox="0 0 150 150" fill="none" xmlns="http://www.w3.org/2000/svg">
<path fill-rule="evenodd" clip-rule="evenodd" d="M18.75 126.133V65.7031H28.125V126.133C28.125 127.366 28.6189 128.548 29.4979 129.42C30.377 130.292 31.5693 130.781 32.8125 130.781H117.188C118.431 130.781 119.623 130.292 120.502 129.42C121.381 128.548 121.875 127.366 121.875 126.133V65.7031H131.25V126.133C131.25 129.831 129.768 133.378 127.131 135.994C124.494 138.609 120.917 140.078 117.188 140.078H32.8125C29.0829 140.078 25.506 138.609 22.8688 135.994C20.2316 133.378 18.75 129.831 18.75 126.133ZM121.875 23.8672V56.4062L103.125 37.8125V23.8672C103.125 22.6343 103.619 21.452 104.498 20.5802C105.377 19.7085 106.569 19.2187 107.812 19.2188H117.188C118.431 19.2188 119.623 19.7085 120.502 20.5802C121.381 21.452 121.875 22.6343 121.875 23.8672Z" fill="#8E97C8"/>
<path fill-rule="evenodd" clip-rule="evenodd" d="M68.3718 14.5703C70.1299 12.8274 72.514 11.8483 74.9999 11.8483C77.4859 11.8483 79.87 12.8274 81.6281 14.5703L143.944 76.3573C144.824 77.2302 145.318 78.414 145.318 79.6484C145.318 80.8828 144.824 82.0666 143.944 82.9395C143.064 83.8123 141.87 84.3027 140.625 84.3027C139.38 84.3027 138.186 83.8123 137.306 82.9395L74.9999 21.1432L12.6937 82.9395C11.8135 83.8123 10.6197 84.3027 9.37494 84.3027C8.13017 84.3027 6.93638 83.8123 6.05619 82.9395C5.176 82.0666 4.68152 80.8828 4.68152 79.6484C4.68152 78.414 5.176 77.2302 6.05619 76.3573L68.3718 14.5703Z" fill="#8E97C8"/>
</svg>
