<svg width="150" height="101" viewBox="0 0 150 101" fill="none" xmlns="http://www.w3.org/2000/svg">
<path d="M148.335 73.0827L124.49 98.8889C122.27 101.291 118.672 101.291 116.452 98.8889L92.6064 73.0827C90.3866 70.6804 90.3866 66.7856 92.6064 64.3835L95.1696 61.6096C97.4341 59.1588 101.122 59.2157 103.321 61.7357L112.892 72.7034V26.0259H68.4756C66.9682 26.0258 65.5225 25.3778 64.4564 24.2243L60.6672 20.1235C57.0866 16.2482 59.6226 9.62245 64.6864 9.62245H122.365C125.505 9.62245 128.049 12.3764 128.049 15.7737V72.7034L137.621 61.7357C139.82 59.2159 143.507 59.1588 145.772 61.6096L148.335 64.3835C150.555 66.7856 150.555 70.6806 148.335 73.0827V73.0827ZM85.5433 77.0378C85.0155 76.4665 84.3889 76.0135 83.6993 75.7043C83.0096 75.3952 82.2705 75.2361 81.5241 75.2362H37.1077V28.5584L46.6793 39.5262C48.8784 42.0459 52.5658 42.1031 54.8306 39.652L57.3936 36.8783C59.6133 34.476 59.6133 30.5812 57.3936 28.1791L33.5484 2.37316C31.3286 -0.0291723 27.7298 -0.0291723 25.5102 2.37316L1.66483 28.1793C-0.554945 30.5817 -0.554945 34.4765 1.66483 36.8786L4.22778 39.6523C6.49232 42.103 10.18 42.0461 12.3791 39.5264L21.9507 28.5584V85.4883C21.9507 88.8856 24.4954 91.6396 27.6346 91.6396H85.3136C90.3774 91.6396 92.9133 85.0139 89.3328 81.1386L85.5433 77.0378V77.0378Z" fill="#8E97C8"/>
</svg>
