<svg width="150" height="123" viewBox="0 0 150 123" fill="none" xmlns="http://www.w3.org/2000/svg">
<path d="M148.335 89.0828L124.49 120.787C122.27 123.738 118.672 123.738 116.452 120.787L92.6064 89.0828C90.3866 86.1315 90.3866 81.3466 92.6064 78.3956L95.1696 74.9876C97.4341 71.9768 101.122 72.0467 103.321 75.1425L112.892 88.6168V31.2718H68.4756C66.9682 31.2717 65.5225 30.4756 64.4564 29.0585L60.6672 24.0204C57.0866 19.2595 59.6226 11.1195 64.6864 11.1195H122.365C125.505 11.1195 128.049 14.5029 128.049 18.6766V88.6168L137.621 75.1425C139.82 72.047 143.507 71.9768 145.772 74.9876L148.335 78.3956C150.555 81.3466 150.555 86.1318 148.335 89.0828ZM85.5433 93.9417C85.0155 93.24 84.3889 92.6834 83.6993 92.3036C83.0096 91.9238 82.2705 91.7284 81.5241 91.7285H37.1077V34.3831L46.6793 47.8574C48.8784 50.9529 52.5658 51.0232 54.8306 48.012L57.3936 44.6044C59.6133 41.653 59.6133 36.8681 57.3936 33.9171L33.5484 2.21352C31.3286 -0.737839 27.7298 -0.737839 25.5102 2.21352L1.66483 33.9174C-0.554945 36.8687 -0.554945 41.6536 1.66483 44.6047L4.22778 48.0123C6.49232 51.0232 10.18 50.9533 12.3791 47.8577L21.9507 34.3831V104.324C21.9507 108.497 24.4954 111.881 27.6346 111.881H85.3136C90.3774 111.881 92.9133 103.741 89.3328 98.9798L85.5433 93.9417Z" fill="white"/>
</svg>
