<svg width="1280" height="720" viewBox="0 0 1280 720" fill="none" xmlns="http://www.w3.org/2000/svg">
<path d="M573.666 306.667C577.203 306.667 580.594 308.072 583.094 310.572C585.595 313.073 587 316.464 587 320V480C587 483.537 585.595 486.928 583.094 489.428C580.594 491.929 577.203 493.334 573.666 493.334C570.13 493.334 566.739 491.929 564.238 489.428C561.738 486.928 560.333 483.537 560.333 480V320C560.333 316.464 561.738 313.073 564.238 310.572C566.739 308.072 570.13 306.667 573.666 306.667V306.667ZM640.333 306.667C643.869 306.667 647.261 308.072 649.761 310.572C652.262 313.073 653.666 316.464 653.666 320V480C653.666 483.537 652.262 486.928 649.761 489.428C647.261 491.929 643.869 493.334 640.333 493.334C636.797 493.334 633.405 491.929 630.905 489.428C628.404 486.928 627 483.537 627 480V320C627 316.464 628.404 313.073 630.905 310.572C633.405 308.072 636.797 306.667 640.333 306.667V306.667ZM720.333 320C720.333 316.464 718.928 313.073 716.428 310.572C713.927 308.072 710.536 306.667 707 306.667C703.463 306.667 700.072 308.072 697.572 310.572C695.071 313.073 693.666 316.464 693.666 320V480C693.666 483.537 695.071 486.928 697.572 489.428C700.072 491.929 703.463 493.334 707 493.334C710.536 493.334 713.927 491.929 716.428 489.428C718.928 486.928 720.333 483.537 720.333 480V320Z" fill="#FF0000"/>
<path fill-rule="evenodd" clip-rule="evenodd" d="M813.667 240C813.667 247.072 810.857 253.855 805.856 258.856C800.855 263.857 794.072 266.667 787 266.667H773.667V506.667C773.667 520.812 768.048 534.377 758.046 544.379C748.044 554.381 734.478 560 720.333 560H560.333C546.188 560 532.623 554.381 522.621 544.379C512.619 534.377 507 520.812 507 506.667V266.667H493.667C486.594 266.667 479.811 263.857 474.81 258.856C469.81 253.855 467 247.072 467 240V213.333C467 206.261 469.81 199.478 474.81 194.477C479.811 189.476 486.594 186.667 493.667 186.667H587C587 179.594 589.81 172.811 594.81 167.81C599.811 162.81 606.594 160 613.667 160H667C674.072 160 680.855 162.81 685.856 167.81C690.857 172.811 693.667 179.594 693.667 186.667H787C794.072 186.667 800.855 189.476 805.856 194.477C810.857 199.478 813.667 206.261 813.667 213.333V240ZM536.813 266.667L533.667 268.24V506.667C533.667 513.739 536.476 520.522 541.477 525.523C546.478 530.524 553.261 533.333 560.333 533.333H720.333C727.406 533.333 734.189 530.524 739.19 525.523C744.19 520.522 747 513.739 747 506.667V268.24L743.853 266.667H536.813ZM493.667 240V213.333H787V240H493.667Z" fill="#FF0000"/>
</svg>
