<svg width="150" height="123" viewBox="0 0 150 123" fill="none" xmlns="http://www.w3.org/2000/svg">
<path d="M48.5156 62.104C48.5156 65.4536 45.9896 68.0069 42.7865 68.0069C40.3906 68.0069 38.6198 66.5792 38.6198 63.8886C38.6198 60.5391 41.0937 57.8484 44.2708 57.8484C46.6927 57.8484 48.5156 59.4134 48.5156 62.104ZM20.9635 48.7882H19.7396C19.349 48.7882 18.9583 49.0627 18.9062 49.5295L17.7865 56.86L19.9219 56.7777C22.7865 56.7777 25 56.3658 25.5208 52.879C26.1198 49.2 23.9062 48.7882 20.9635 48.7882V48.7882ZM94.9219 48.7882H93.75C93.2812 48.7882 92.9687 49.0627 92.9167 49.5295L91.8229 56.86L93.9062 56.7777C97.2917 56.7777 99.6354 55.954 99.6354 51.8357C99.6094 48.9254 97.1354 48.7882 94.9219 48.7882V48.7882ZM150 13.1786V109.821C150 117.097 144.401 123 137.5 123H12.5C5.59896 123 0 117.097 0 109.821V13.1786C0 5.9029 5.59896 0 12.5 0H137.5C144.401 0 150 5.9029 150 13.1786ZM33.4115 50.3531C33.4115 44.5875 29.1927 42.6656 24.375 42.6656H13.9583C13.3073 42.6656 12.6562 43.2147 12.6042 43.956L8.33333 71.9879C8.25521 72.5371 8.64583 73.0862 9.16667 73.0862H14.1146C14.8177 73.0862 15.4687 72.29 15.5469 71.5212L16.7187 64.2181C16.9792 62.2413 20.1562 62.9277 21.4062 62.9277C28.8542 62.9277 33.4115 58.2603 33.4115 50.3531V50.3531ZM55.3385 52.7692H50.3906C49.401 52.7692 49.349 54.2792 49.2969 55.0205C47.7865 52.6868 45.599 52.275 43.125 52.275C36.7448 52.275 31.875 58.1779 31.875 64.6848C31.875 70.0386 35.0521 73.5254 40.1302 73.5254C42.474 73.5254 45.3906 72.1801 47.0312 70.2583C46.901 70.6701 46.7708 71.5487 46.7708 71.9605C46.7708 72.592 47.0312 73.0587 47.6042 73.0587H52.0833C52.7865 73.0587 53.3854 72.2625 53.5156 71.4937L56.1719 53.84C56.25 53.3183 55.8594 52.7692 55.3385 52.7692ZM65.8854 79.648L82.474 54.2243C82.6042 54.0871 82.6042 53.9498 82.6042 53.7576C82.6042 53.2908 82.2135 52.7967 81.7708 52.7967H76.7708C76.3281 52.7967 75.8594 53.0712 75.599 53.483L68.6979 64.1906L65.8333 53.8949C65.625 53.2908 65.0521 52.7967 64.401 52.7967H59.5312C59.0885 52.7967 58.6979 53.2908 58.6979 53.7576C58.6979 54.0871 63.776 69.3522 64.2187 70.8074C63.5156 71.8507 58.8802 78.6596 58.8802 79.4833C58.8802 79.9775 59.2708 80.3618 59.7135 80.3618H64.7135C65.1823 80.3344 65.625 80.0598 65.8854 79.648V79.648ZM107.37 50.3531C107.37 44.5875 103.151 42.6656 98.3333 42.6656H87.9948C87.2917 42.6656 86.6406 43.2147 86.5625 43.956L82.3438 71.9605C82.2917 72.5096 82.6823 73.0587 83.1771 73.0587H88.5156C89.0365 73.0587 89.4271 72.6469 89.5573 72.1801L90.7292 64.2181C90.9896 62.2413 94.1667 62.9277 95.4167 62.9277C102.812 62.9277 107.37 58.2603 107.37 50.3531ZM129.297 52.7692H124.349C123.359 52.7692 123.307 54.2792 123.229 55.0205C121.797 52.6868 119.583 52.275 117.057 52.275C110.677 52.275 105.807 58.1779 105.807 64.6848C105.807 70.0386 108.984 73.5254 114.062 73.5254C116.484 73.5254 119.401 72.1801 120.964 70.2583C120.885 70.6701 120.703 71.5487 120.703 71.9605C120.703 72.592 120.964 73.0587 121.536 73.0587H126.042C126.745 73.0587 127.344 72.2625 127.474 71.4937L130.13 53.84C130.208 53.3183 129.818 52.7692 129.297 52.7692V52.7692ZM141.667 43.6266C141.667 43.0775 141.276 42.6656 140.833 42.6656H136.016C135.625 42.6656 135.234 42.9951 135.182 43.4069L130.964 71.9605L130.885 72.0978C130.885 72.592 131.276 73.0587 131.797 73.0587H136.094C136.745 73.0587 137.396 72.2625 137.448 71.4937L141.667 43.7089V43.6266V43.6266ZM118.229 57.8484C115.052 57.8484 112.578 60.5116 112.578 63.8886C112.578 66.5518 114.401 68.0069 116.797 68.0069C119.922 68.0069 122.448 65.481 122.448 62.104C122.474 59.4134 120.651 57.8484 118.229 57.8484Z" fill="white"/>
</svg>
